HIERARCHY
ROOT Hips
{
  OFFSET 5.84602e-005 68.8428 3.50346
  CHANNELS 6 Xposition Yposition Zposition Zrotation Xrotation Yrotation
  JOINT Spine
  {
    OFFSET 0 8.597 -4.6522
    CHANNELS 3 Zrotation Xrotation Yrotation
    JOINT Spine1
    {
      OFFSET 0 7.8454 0.4098
      CHANNELS 3 Zrotation Xrotation Yrotation
      JOINT Spine2
      {
        OFFSET 0 9.7078 -2.1609
        CHANNELS 3 Zrotation Xrotation Yrotation
        JOINT Neck
        {
          OFFSET 0 21.8761 -0.4549
          CHANNELS 3 Zrotation Xrotation Yrotation
          JOINT Head
          {
            OFFSET 0 12.3537 3.3602
            CHANNELS 3 Zrotation Xrotation Yrotation
            End Site
            {
              OFFSET 0.0001 18.9506 0.5657
            }
          }
        }
        JOINT LeftShoulder
        {
          OFFSET 2.2086 21.1115 7.2329
          CHANNELS 3 Zrotation Xrotation Yrotation
          JOINT LeftArm
          {
            OFFSET 13.1193 3.0282 -4.8998
            CHANNELS 3 Zrotation Xrotation Yrotation
            JOINT LeftForeArm
            {
              OFFSET 27.4081 -0.0973053 -0.2375
              CHANNELS 3 Zrotation Xrotation Yrotation
              JOINT LeftHand
              {
                OFFSET 22.8641 0.0662994 -0.1369
                CHANNELS 3 Zrotation Xrotation Yrotation
                JOINT LeftHandIndex1
                {
                  OFFSET 8.8614 0.775009 2.4612
                  CHANNELS 3 Zrotation Xrotation Yrotation
                  JOINT LeftHandIndex2
                  {
                    OFFSET 3.3146 -0.808304 0.5841
                    CHANNELS 3 Zrotation Xrotation Yrotation
                    JOINT LeftHandIndex3
                    {
                      OFFSET 2.2628 -0.552002 0.3989
                      CHANNELS 3 Zrotation Xrotation Yrotation
                      End Site
                      {
                        OFFSET 1.6102 -0.4807 0.2612
                      }
                    }
                  }
                }
                JOINT LeftHandMiddle1
                {
                  OFFSET 8.9937 0.895004 0.2143
                  CHANNELS 3 Zrotation Xrotation Yrotation
                  JOINT LeftHandMiddle2
                  {
                    OFFSET 4.0984 0.0113983 -0.0242
                    CHANNELS 3 Zrotation Xrotation Yrotation
                    JOINT LeftHandMiddle3
                    {
                      OFFSET 2.2716 0.00689697 -0.0138001
                      CHANNELS 3 Zrotation Xrotation Yrotation
                      End Site
                      {
                        OFFSET 2.0404 -0.1441 0.0027
                      }
                    }
                  }
                }
                JOINT LeftHandRing1
                {
                  OFFSET 8.5234 0.597198 -2.0164
                  CHANNELS 3 Zrotation Xrotation Yrotation
                  JOINT LeftHandRing2
                  {
                    OFFSET 3.7188 -0.188293 -0.2328
                    CHANNELS 3 Zrotation Xrotation Yrotation
                    JOINT LeftHandRing3
                    {
                      OFFSET 2.1191 -0.106598 -0.1332
                      CHANNELS 3 Zrotation Xrotation Yrotation
                      End Site
                      {
                        OFFSET 1.8737 -0.2304 -0.0886
                      }
                    }
                  }
                }
                JOINT LeftHandPinky1
                {
                  OFFSET 7.9094 -0.601089 -3.4825
                  CHANNELS 3 Zrotation Xrotation Yrotation
                  JOINT LeftHandPinky2
                  {
                    OFFSET 2.2874 -0.477005 -0.6314
                    CHANNELS 3 Zrotation Xrotation Yrotation
                    JOINT LeftHandPinky3
                    {
                      OFFSET 1.6774 -0.349396 -0.4633
                      CHANNELS 3 Zrotation Xrotation Yrotation
                      End Site
                      {
                        OFFSET 1.4888 -0.4091 -0.3416
                      }
                    }
                  }
                }
                JOINT LeftHandThumb1
                {
                  OFFSET 1.833 -1.3875 1.3896
                  CHANNELS 3 Zrotation Xrotation Yrotation
                  JOINT LeftHandThumb2
                  {
                    OFFSET 3.4129 -1.121 2.5732
                    CHANNELS 3 Zrotation Xrotation Yrotation
                    JOINT LeftHandThumb3
                    {
                      OFFSET 2.2474 -0.804199 1.6192
                      CHANNELS 3 Zrotation Xrotation Yrotation
                      End Site
                      {
                        OFFSET 1.6527 -0.5689 1.1317
                      }
                    }
                  }
                }
              }
            }
          }
        }
        JOINT RightShoulder
        {
          OFFSET -2.2086 21.1115 7.2329
          CHANNELS 3 Zrotation Xrotation Yrotation
          JOINT RightArm
          {
            OFFSET -13.1216 3.0287 -4.9007
            CHANNELS 3 Zrotation Xrotation Yrotation
            JOINT RightForeArm
            {
              OFFSET -27.4081 -0.0973053 -0.2375
              CHANNELS 3 Zrotation Xrotation Yrotation
              JOINT RightHand
              {
                OFFSET -22.8641 0.0664063 -0.1369
                CHANNELS 3 Zrotation Xrotation Yrotation
                JOINT RightHandIndex1
                {
                  OFFSET -8.8614 0.774994 2.4612
                  CHANNELS 3 Zrotation Xrotation Yrotation
                  JOINT RightHandIndex2
                  {
                    OFFSET -3.3146 -0.808304 0.5841
                    CHANNELS 3 Zrotation Xrotation Yrotation
                    JOINT RightHandIndex3
                    {
                      OFFSET -2.2628 -0.552002 0.3989
                      CHANNELS 3 Zrotation Xrotation Yrotation
                      End Site
                      {
                        OFFSET -1.6102 -0.4807 0.2612
                      }
                    }
                  }
                }
                JOINT RightHandMiddle1
                {
                  OFFSET -8.9937 0.894989 0.2143
                  CHANNELS 3 Zrotation Xrotation Yrotation
                  JOINT RightHandMiddle2
                  {
                    OFFSET -4.0984 0.0113983 -0.0242
                    CHANNELS 3 Zrotation Xrotation Yrotation
                    JOINT RightHandMiddle3
                    {
                      OFFSET -2.2716 0.00691223 -0.0138001
                      CHANNELS 3 Zrotation Xrotation Yrotation
                      End Site
                      {
                        OFFSET -2.0404 -0.1441 0.0027
                      }
                    }
                  }
                }
                JOINT RightHandRing1
                {
                  OFFSET -8.5234 0.597198 -2.0164
                  CHANNELS 3 Zrotation Xrotation Yrotation
                  JOINT RightHandRing2
                  {
                    OFFSET -3.7188 -0.188309 -0.2328
                    CHANNELS 3 Zrotation Xrotation Yrotation
                    JOINT RightHandRing3
                    {
                      OFFSET -2.1191 -0.106598 -0.1332
                      CHANNELS 3 Zrotation Xrotation Yrotation
                      End Site
                      {
                        OFFSET -1.8737 -0.2304 -0.0886
                      }
                    }
                  }
                }
                JOINT RightHandPinky1
                {
                  OFFSET -7.9094 -0.601105 -3.4825
                  CHANNELS 3 Zrotation Xrotation Yrotation
                  JOINT RightHandPinky2
                  {
                    OFFSET -2.2874 -0.477005 -0.6314
                    CHANNELS 3 Zrotation Xrotation Yrotation
                    JOINT RightHandPinky3
                    {
                      OFFSET -1.6774 -0.349396 -0.4633
                      CHANNELS 3 Zrotation Xrotation Yrotation
                      End Site
                      {
                        OFFSET -1.4888 -0.4091 -0.3416
                      }
                    }
                  }
                }
                JOINT RightHandThumb1
                {
                  OFFSET -1.833 -1.38751 1.3896
                  CHANNELS 3 Zrotation Xrotation Yrotation
                  JOINT RightHandThumb2
                  {
                    OFFSET -3.41299 -1.12099 2.5732
                    CHANNELS 3 Zrotation Xrotation Yrotation
                    JOINT RightHandThumb3
                    {
                      OFFSET -2.24741 -0.804108 1.6192
                      CHANNELS 3 Zrotation Xrotation Yrotation
                      End Site
                      {
                        OFFSET -1.6527 -0.5689 1.1317
                      }
                    }
                  }
                }
              }
            }
          }
        }
      }
    }
  }
  JOINT RightUpLeg
  {
    OFFSET -9.1966 3.8861 -0.7581
    CHANNELS 3 Zrotation Xrotation Yrotation
    JOINT RightLeg
    {
      OFFSET -0.7359 -41.0265 0
      CHANNELS 3 Zrotation Xrotation Yrotation
      JOINT RightFoot
      {
        OFFSET 0 -40.2855 0
        CHANNELS 3 Zrotation Xrotation Yrotation
        JOINT RightToeBase
        {
          OFFSET 0 -5.6122 11.7359
          CHANNELS 3 Zrotation Xrotation Yrotation
          End Site
          {
            OFFSET 0 0 7.8731
          }
        }
      }
    }
  }
  JOINT LeftUpLeg
  {
    OFFSET 9.1965 3.8864 -0.7581
    CHANNELS 3 Zrotation Xrotation Yrotation
    JOINT LeftLeg
    {
      OFFSET 0.7359 -41.0268 0
      CHANNELS 3 Zrotation Xrotation Yrotation
      JOINT LeftFoot
      {
        OFFSET 0 -40.2855 0
        CHANNELS 3 Zrotation Xrotation Yrotation
        JOINT LeftToeBase
        {
          OFFSET 0 -5.6122 11.7359
          CHANNELS 3 Zrotation Xrotation Yrotation
          End Site
          {
            OFFSET 0 0 7.8731
          }
        }
      }
    }
  }
}
MOTION
Frames:	4
Frame Time:	0.0333333
5.84602e-005 68.8428 3.50346 0 0 -0 0 0 -0 0 0 -0 0 0 -0 0 0 -0 0 0 -0 0 0 -0 0 0 -0 0 0 -0 0 0 -0 0 0 -0 0 0 -0 0 0 -0 0 0 -0 -0.0146107 -8.87603e-005 -2.63497e-007 2.99804e-018 -2.42657e-020 -1.42182e-022 0 0 -0 -0.0187562 -0.001176 5.858e-005 5.06224e-018 3.88251e-019 1.21329e-020 0 0 -0 -0.012269 -0.00324817 0.000675346 -1.74678e-018 3.88251e-019 -0 0 0 -0 0 0 -0 0 0 -0 0 0 -0 0 0 -0 0 0 -0 0 0 -0 0 0 -0 0 0 -0 0 0 -0 0 0 -0 0.0149955 -9.10982e-005 2.64101e-007 -9.69331e-018 1.21329e-020 -4.7394e-023 0 0 -0 0.0189956 -0.00119102 -5.96516e-005 -5.41541e-019 0 2.42657e-020 0 0 -0 0.0122698 -0.00324857 -0.000673756 -2.00796e-019 0 -1.94126e-019 0 0 -0 0 0 -0 0 0 -0 3.39842 1.33031 -0.0637918 -5.65207e-008 0.834868 -0.000436188 -3.39935 -2.16518 -0.0642563 -8.89002e-024 -1.18485e-023 -1.48106e-024 -3.39844 1.35642 0.0640283 -3.18788e-007 0.782166 -0.000588827 3.39931 -2.13858 0.0634662 1.1399e-023 0 -0 
7.35852 46.4826 5.89859 -0 -27.4083 -0 0.0638217 7.185 0.0325071 0.12499 14.37 0.0575604 0.12499 14.37 0.0575604 8.03715e-006 -5.18504 -1.06262e-006 2.28299e-008 4.44361 9.32732e-008 1.36112e-007 1.53253e-005 2.4684e-008 -6.72745 -19.1266 -31.9539 1.71614 7.20708 -13.4422 -8.51946 -3.89511e-007 -4.22364e-006 -7.91377e-008 1.9778e-007 1.27404e-008 6.03399e-007 -4.47197e-007 6.30817e-006 -7.91377e-008 1.9778e-007 1.27404e-008 -7.91377e-008 1.9778e-007 1.27404e-008 -0.0146439 -8.90253e-005 -5.86378e-007 -7.91382e-008 1.97778e-007 1.27658e-008 -7.91377e-008 1.9778e-007 1.27404e-008 -0.0187251 -0.00117482 6.36355e-005 -7.91381e-008 1.97778e-007 1.27736e-008 -7.91377e-008 1.9778e-007 1.27404e-008 -0.0122997 -0.00325649 0.000686934 -7.91366e-008 1.97779e-007 1.27639e-008 -7.91377e-008 1.9778e-007 1.27404e-008 6.03399e-007 -4.47197e-007 6.30817e-006 -7.91377e-008 1.9778e-007 1.27404e-008 8.31226e-008 -3.7045 7.36803e-008 0.515319 3.92678 27.8479 -0.418251 -8.37991 11.9301 5.14813 -2.57149 7.41437 5.96354e-016 3.77691e-015 6.36111e-015 -7.95139e-016 2.98177e-015 3.18055e-015 1.78906e-015 3.77691e-015 -0 5.96354e-016 3.77691e-015 6.36111e-015 0.0149303 -9.0411e-005 1.15073e-006 -4.17448e-015 -1.39149e-015 6.36111e-015 5.96354e-016 3.77691e-015 6.36111e-015 0.0190788 -0.00119648 -6.22315e-005 -7.95139e-016 2.5842e-015 6.36111e-015 5.96354e-016 3.77691e-015 6.36111e-015 0.0121843 -0.00322568 -0.000673675 9.93923e-016 -1.98785e-016 3.18055e-015 5.96354e-016 3.77691e-015 6.36111e-015 -7.95139e-016 2.98177e-015 3.18055e-015 1.78906e-015 3.77691e-015 -0 -9.29508 -25.0053 -25.1084 0.054121 41.6796 -1.63509 -3.52174 6.77841 0.20863 -1.53711e-007 3.00875e-007 -1.70048e-006 9.32221 -24.9561 25.0632 -0.0519832 40.3876 1.54099 5.28314 4.31004 -0.719705 1.98974e-007 1.75025e-006 -1.59096e-006 
14.7131 24.8916 7.05425 -0 -54.8165 -0 0.0953452 14.3698 0.104171 0.171198 28.7397 0.192274 0.171198 28.7397 0.192274 2.515e-006 -10.3706 4.71293e-008 1.76731e-008 8.88723 3.61268e-008 2.92742e-008 6.75482e-006 -1.38529e-008 -30.7168 -20.4993 -67.6079 6.76741 13.2093 -27.4527 -17.0389 -9.83893e-009 -1.0429e-005 -7.83044e-007 8.51187e-007 2.00836e-007 -5.69487e-007 6.19045e-007 1.46062e-007 -2.94148e-007 3.71386e-007 4.90171e-007 -7.83044e-007 8.51187e-007 2.00836e-007 -0.0146127 -8.66346e-005 -6.35696e-007 -3.5593e-007 3.86892e-007 9.13385e-008 -7.83044e-007 8.51187e-007 2.00836e-007 -0.0187296 -0.00117148 4.83936e-005 -3.55929e-007 3.86889e-007 9.13558e-008 -7.83044e-007 8.51187e-007 2.00836e-007 -0.0122318 -0.00323801 0.000678351 -2.95179e-007 3.71058e-007 4.90278e-007 -7.83044e-007 8.51187e-007 2.00836e-007 -5.69487e-007 6.19045e-007 1.46062e-007 -2.94148e-007 3.71386e-007 4.90171e-007 8.25645e-008 -7.40902 -3.50962e-009 -2.16563 5.00819 55.8751 2.66858 -15.6534 24.5696 10.9566 -5.01346 14.8719 -4.56492e-007 -4.24747e-007 1.45241e-007 6.36111e-015 -5.1684e-015 -3.97569e-016 -4.56492e-007 -4.24747e-007 1.45241e-007 -4.56492e-007 -4.24747e-007 1.45241e-007 0.0150301 -9.06526e-005 -3.9009e-007 -4.56493e-007 -4.24728e-007 1.45297e-007 -4.56492e-007 -4.24747e-007 1.45241e-007 0.0189504 -0.00118916 -5.95359e-005 -4.56492e-007 -4.24723e-007 1.45316e-007 -4.56492e-007 -4.24747e-007 1.45241e-007 0.0123202 -0.00326254 -0.00067927 -4.56486e-007 -4.24733e-007 1.453e-007 -4.56492e-007 -4.24747e-007 1.45241e-007 6.36111e-015 -5.1684e-015 -3.97569e-016 -4.56492e-007 -4.24747e-007 1.45241e-007 -44.2872 -36.0206 -60.8013 0.0105723 81.0545 -2.16397 -3.16245 16.1301 -0.987499 7.72014e-007 -6.09976e-007 3.60289e-006 44.2223 -35.9003 60.5827 -0.010645 78.4637 2.02304 6.96204 11.232 -0.158527 -1.05027e-006 1.52653e-006 1.4611e-006 
19.8573 9.9592 6.97059 -0 -74.0023 -0 0.0844353 19.399 0.182051 0.109039 38.798 0.366396 0.109039 38.798 0.366396 -7.35201e-006 -14.0004 3.44473e-007 -6.24909e-008 11.9978 6.35397e-007 1.24604e-007 1.00384e-005 2.35278e-007 -46.6942 -7.78489 -85.4775 12.0731 16.0639 -37.7121 -23.0025 -4.76463e-006 6.6302e-006 1.70105e-007 -1.1521e-007 -5.77308e-008 1.02063e-006 -6.9126e-007 -3.46385e-007 1.19073e-006 -8.06471e-007 -4.04115e-007 1.70105e-007 -1.1521e-007 -5.77308e-008 -0.0146024 -8.90055e-005 2.15084e-006 1.19074e-006 -8.06419e-007 -4.04219e-007 1.70105e-007 -1.1521e-007 -5.77308e-008 -0.0187702 -0.00117829 6.47958e-005 1.19073e-006 -8.06405e-007 -4.0426e-007 1.70105e-007 -1.1521e-007 -5.77308e-008 -0.0122874 -0.00325804 0.000673797 1.10259e-006 -1.67861e-006 1.57689e-006 1.70105e-007 -1.1521e-007 -5.77308e-008 1.02063e-006 -6.9126e-007 -3.46385e-007 1.19073e-006 -8.06471e-007 -4.04115e-007 1.31616e-007 -10.0022 6.19459e-007 -4.60261 3.08157 75.3102 6.80861 -19.4791 34.0509 15.4018 -6.57738 20.1368 -4.07824e-007 -1.98978e-007 1.57219e-007 3.17196e-007 1.5476e-007 -1.22282e-007 -1.67661e-006 -8.18019e-007 6.46346e-007 -4.07824e-007 -1.98978e-007 1.57219e-007 0.0149583 -9.26992e-005 -3.30345e-006 -1.67661e-006 -8.17935e-007 6.46454e-007 -4.07824e-007 -1.98978e-007 1.57219e-007 0.0189755 -0.00118381 -5.7897e-005 -1.6766e-006 -8.17913e-007 6.46498e-007 -4.07824e-007 -1.98978e-007 1.57219e-007 0.0123037 -0.00325814 -0.000681522 -8.85909e-007 -2.40689e-006 7.88767e-007 -4.07824e-007 -1.98978e-007 1.57219e-007 3.17196e-007 1.5476e-007 -1.22282e-007 -1.67661e-006 -8.18019e-007 6.46346e-007 -72.715 -29.4193 -84.1534 -179.968 70.925 176.704 -2.58079 22.4276 -1.69565 -6.78933e-006 -1.00748e-006 -3.27239e-006 72.4767 -29.294 83.6433 179.984 74.3917 -176.958 7.95516 15.7616 0.0490608 -4.80978e-007 -1.45521e-006 -6.87983e-007 
